<?xml version="1.0" standalone="no"?>
<!DOCTYPE svg PUBLIC "-//W3C//DTD SVG 20010904//EN"
 "http://www.w3.org/TR/2001/REC-SVG-20010904/DTD/svg10.dtd">
<svg version="1.0" xmlns="http://www.w3.org/2000/svg"
 width="256.000000pt" height="246.000000pt" viewBox="0 0 256.000000 246.000000"
 preserveAspectRatio="xMidYMid meet">

<g transform="translate(0.000000,246.000000) scale(0.100000,-0.100000)"
fill="#000000" stroke="none">
<path d="M857 2439 c-33 -30 -857 -1899 -857 -1945 0 -20 9 -39 28 -56 46 -43
747 -438 776 -438 15 0 248 29 519 65 1055 140 1166 155 1175 155 20 0 62 54
62 79 0 29 -832 1767 -858 1792 -27 25 -743 360 -783 366 -28 4 -41 0 -62 -18z
m388 -865 l57 -121 -167 -394 c-92 -217 -170 -397 -173 -400 -8 -8 -733 -91
-739 -85 -3 3 599 1383 698 1599 13 28 15 24 140 -225 70 -139 153 -307 184
-374z m58 515 c119 -56 217 -106 217 -111 0 -19 -155 -378 -162 -375 -7 2
-298 583 -298 594 0 7 -3 9 243 -108z m671 -959 c175 -363 316 -663 314 -666
-3 -2 -117 55 -254 128 l-249 133 -128 260 c-89 181 -131 255 -136 245 -5 -8
-16 -39 -27 -68 l-18 -53 92 -186 c51 -102 92 -187 90 -188 -2 -2 -84 -13
-183 -24 -98 -12 -182 -25 -186 -29 -10 -12 -40 -94 -36 -99 3 -2 112 8 243
22 l239 27 248 -133 c136 -73 247 -135 247 -139 0 -3 -80 -16 -177 -29 -98
-12 -380 -49 -627 -82 -247 -33 -453 -58 -456 -57 -4 2 14 53 40 113 25 61
178 422 340 802 161 381 296 691 299 688 4 -2 150 -301 325 -665z m-1064 -595
c0 -7 -130 -318 -135 -323 -5 -6 -436 246 -436 255 0 4 120 22 268 39 310 36
303 36 303 29z"/>
</g>
</svg>
